#N canvas 34 29 1375 757 12;
#N canvas 0 25 1440 762 delay 0;
#X obj 384 421 delwrite~ delay 5000;
#X obj 384 372 *~;
#X obj 383 205 delread~ delay 3000;
#X obj 120 185 hsl 162 19 0 0.99 0 0 empty empty delay\ feedback -2 -10 0 12 #fcfcfc #000000 #000000 0 1;
#X text 114 107 DELAY;
#X obj 253 371 catch~ delay_in;
#X obj 484 330 throw~ delay_out;
#X obj 329 14 loadbang;
#X msg 287 47 500;
#X msg 337 46 0.8;
#X floatatom 117 142 10 0 3000 2 delay\ time - - 0;
#X connect 1 0 0 0;
#X connect 2 0 1 0;
#X connect 2 0 6 0;
#X connect 3 0 1 1;
#X connect 5 0 0 0;
#X connect 7 0 8 0;
#X connect 7 0 9 0;
#X connect 8 0 10 0;
#X connect 9 0 3 0;
#X connect 10 0 2 0;
#X coords 0 -1 1 1 200 120 2 100 100;
#X restore 926 23 pd delay;
#N canvas 0 25 1440 762 vco 0;
#X obj 277 341 r samplesize;
#X obj 213 341 phasor~;
#X obj 213 411 tabread~ output;
#X obj 213 377 *~ 600;
#X obj 413 340 phasor~;
#X obj 413 411 tabread~ output;
#X obj 413 377 *~ 600;
#X msg 337 378 \$1 100;
#X obj 337 410 line~;
#X obj 413 456 *~;
#X obj 213 456 *~;
#X msg 533 379 \$1 100;
#X obj 533 411 line~;
#X obj 28 79 expr f0;
#X obj 445 273 expr 1/(($f1 + 1)*2);
#X obj 478 339 r samplesize;
#X obj 422 227 t b f;
#X obj 213 499 throw~ out;
#X obj 413 500 throw~ sub_out;
#X obj 119 206 hsl 162 19 0 127 0 0 empty empty frequency -2 -10 0 12 #fcfcfc #000000 #000000 0 1;
#X obj 213 276 mtof~;
#X obj 413 310 *~ 0.5;
#X obj 117 151 bng 25 250 50 0 empty empty reset -3 -10 0 12 #fcfcfc #000000 #000000;
#X obj 155 151 tgl 25 0 empty empty out 3 -10 0 12 #fcfcfc #000000 #000000 0 1;
#X obj 193 151 tgl 25 0 empty empty sub 2 -10 0 12 #fcfcfc #000000 #000000 0 1;
#X obj 231 151 hradio 25 1 0 2 empty empty -1/-2 5 -10 0 12 #fcfcfc #000000 #000000 0;
#X obj 28 109 ftom;
#X text 114 111 VCO;
#X obj 173 30 loadbang;
#X msg 101 64 73.5;
#X connect 0 0 3 1;
#X connect 1 0 3 0;
#X connect 2 0 10 0;
#X connect 3 0 2 0;
#X connect 4 0 6 0;
#X connect 5 0 9 0;
#X connect 6 0 5 0;
#X connect 7 0 8 0;
#X connect 8 0 10 1;
#X connect 9 0 18 0;
#X connect 10 0 17 0;
#X connect 11 0 12 0;
#X connect 12 0 9 1;
#X connect 13 0 26 0;
#X connect 14 0 21 1;
#X connect 15 0 6 1;
#X connect 16 0 19 0;
#X connect 16 1 14 0;
#X connect 19 0 20 0;
#X connect 20 0 21 0;
#X connect 20 0 1 0;
#X connect 21 0 4 0;
#X connect 22 0 13 0;
#X connect 23 0 7 0;
#X connect 24 0 11 0;
#X connect 25 0 16 0;
#X connect 26 0 19 0;
#X connect 28 0 23 0;
#X connect 28 0 29 0;
#X connect 29 0 26 0;
#X coords 0 -1 1 1 200 150 2 100 100;
#X restore 716 23 pd vco;
#N canvas 0 28 1440 734 morph-pad 0;
#N canvas 208 233 450 278 (subpatch) 0;
#X array A 600 float 0;
#X coords 0 1 599 -1 200 140 1 0 0;
#X restore 128 132 graph;
#N canvas 773 169 450 278 (subpatch) 0;
#X array B 600 float 0;
#X coords 0 -1 599 1 200 140 1 0 0;
#X restore 353 132 graph;
#N canvas 0 22 450 278 (subpatch) 0;
#X array C 600 float 0;
#X coords 0 1 599 -1 200 140 1 0 0;
#X restore 128 297 graph;
#N canvas 0 22 450 278 (subpatch) 0;
#X array D 600 float 0;
#X coords 0 1 599 -1 200 140 1 0 0;
#X restore 353 297 graph;
#X obj 131 457 hsl 420 20 0 1 0 1 empty empty empty -2 -8 0 10 #fcfcfc #000000 #000000 505 1;
#X obj 573 134 vsl 20 300 1 0 0 1 empty empty empty 0 -9 0 10 #fcfcfc #000000 #000000 18212 1;
#X obj 33 432 r x_mod;
#X obj 578 46 r y_mod;
#X obj 556 618 s osc_message;
#X obj 556 556 pack f f;
#X obj 556 587 oscformat morphing;
#X obj 577 522 t b f;
#X obj 661 45 loadbang;
#X obj 33 345 loadbang;
#X msg 33 376 0;
#X msg 661 76 0;
#X connect 4 0 9 0;
#X connect 5 0 11 0;
#X connect 6 0 4 0;
#X connect 7 0 5 0;
#X connect 9 0 10 0;
#X connect 10 0 8 0;
#X connect 11 0 9 0;
#X connect 11 1 9 1;
#X connect 12 0 15 0;
#X connect 13 0 14 0;
#X connect 14 0 4 0;
#X connect 15 0 5 0;
#X coords 0 -1 1 1 520 400 2 100 100;
#X restore 186 23 pd morph-pad;
#N canvas 0 28 947 524 filter 0;
#X obj 128 300 catch~ filter_in;
#X obj 121 151 hsl 162 19 0 127 0 0 empty empty filter\ cutoff -2 -10 0 12 #fcfcfc #000000 #000000 0 1;
#X obj 324 307 mtof~;
#X obj 121 196 hsl 162 19 0 10 0 0 empty empty resonance -2 -10 0 12 #fcfcfc #000000 #000000 0 1;
#X obj 131 439 throw~ lp_out;
#X obj 241 440 throw~ bp_out;
#X text 115 110 FILTER;
#X obj 357 46 loadbang;
#X obj 233 376 vcf~;
#X msg 356 147 1;
#X obj 317 109 ftom;
#X obj 66 44 r cutoff_mod;
#X msg 317 82 500;
#X connect 0 0 8 0;
#X connect 1 0 2 0;
#X connect 2 0 8 1;
#X connect 3 0 8 2;
#X connect 7 0 12 0;
#X connect 7 0 9 0;
#X connect 8 0 4 0;
#X connect 8 1 5 0;
#X connect 9 0 3 0;
#X connect 10 0 1 0;
#X connect 11 0 1 0;
#X connect 12 0 10 0;
#X coords 0 -1 1 1 200 130 2 100 100;
#X restore 716 183 pd filter;
#N canvas 0 28 805 631 reverb 0;
#X obj 119 146 hsl 162 19 0 99 0 0 empty empty feedback -2 -10 0 12 #fcfcfc #000000 #000000 0 1;
#X obj 119 188 hsl 162 19 0 127 0 0 empty empty crossover\ frequency -2 -10 0 12 #fcfcfc #000000 #000000 0 1;
#X obj 119 230 hsl 162 19 0 100 0 0 empty empty hf\ damping -2 -10 0 12 #fcfcfc #000000 #000000 0 1;
#X text 113 108 REVERB;
#X obj 73 338 catch~ reverb_in;
#X obj 133 456 throw~ reverb_out_1;
#X obj 292 454 throw~ reverb_out_2;
#X obj 307 336 mtof;
#X obj 350 47 loadbang;
#X msg 377 93 3000;
#X obj 376 129 ftom;
#X msg 445 93 20;
#X obj 206 375 rev2~ 100;
#X msg 318 96 90;
#X connect 0 0 12 2;
#X connect 1 0 7 0;
#X connect 2 0 12 4;
#X connect 4 0 12 0;
#X connect 7 0 12 3;
#X connect 8 0 13 0;
#X connect 8 0 9 0;
#X connect 8 0 11 0;
#X connect 9 0 10 0;
#X connect 10 0 1 0;
#X connect 11 0 2 0;
#X connect 12 0 5 0;
#X connect 12 1 5 0;
#X connect 12 2 6 0;
#X connect 12 3 6 0;
#X connect 13 0 0 0;
#X coords 0 -1 1 1 200 160 2 100 100;
#X restore 926 153 pd reverb;
#N canvas 203 31 859 496 wiring 0;
#X obj 355 61 catch~ out;
#X obj 457 61 catch~ sub_out;
#X obj 393 114 throw~ filter_in;
#X obj 349 155 catch~ lp_out;
#X obj 473 155 catch~ bp_out;
#X obj 410 342 throw~ reverb_in;
#X obj 323 375 catch~ reverb_out_1;
#X obj 486 376 catch~ reverb_out_2;
#X obj 386 228 throw~ delay_in;
#X obj 503 276 catch~ delay_out;
#X obj 382 430 throw~ audio_out;
#X obj 120 146 hsl 162 19 0 1 0 0 empty empty low-pass -2 -10 0 12 #fcfcfc #000000 #000000 0 1;
#X obj 120 190 hsl 162 19 0 1 0 0 empty empty band-pass -2 -10 0 12 #fcfcfc #000000 #000000 0 1;
#X obj 120 234 hsl 162 19 0 1 0 0 empty empty delay -2 -10 0 12 #fcfcfc #000000 #000000 0 1;
#X obj 349 186 *~;
#X obj 544 189 *~;
#X text 116 108 AUDIO MIXER;
#X obj 63 40 loadbang;
#X obj 503 307 *~;
#X msg 63 66 0.8;
#X msg 28 67 0.2;
#X connect 0 0 2 0;
#X connect 1 0 2 0;
#X connect 3 0 14 0;
#X connect 4 0 15 0;
#X connect 6 0 10 0;
#X connect 7 0 10 0;
#X connect 9 0 18 0;
#X connect 11 0 14 1;
#X connect 12 0 15 1;
#X connect 13 0 18 1;
#X connect 14 0 5 0;
#X connect 14 0 8 0;
#X connect 15 0 5 0;
#X connect 15 0 8 0;
#X connect 17 0 19 0;
#X connect 17 0 20 0;
#X connect 18 0 5 0;
#X connect 19 0 11 0;
#X connect 19 0 12 0;
#X connect 20 0 13 0;
#X coords 0 -1 1 1 200 170 2 100 100;
#X restore 926 323 pd wiring;
#N canvas 443 142 729 443 audio_out 0;
#X obj 313 279 dac~;
#X obj 325 188 *~;
#X obj 120 146 hsl 162 19 0 1 0 0 empty empty gain -2 -10 0 12 #fcfcfc #000000 #000000 0 1;
#X text 115 109 AUDIO OUT;
#X obj 310 145 catch~ audio_out;
#X msg 377 239 \$1 100;
#X obj 377 271 line~;
#X obj 118 179 tgl 25 0 empty empty empty 0 -10 0 12 #fcfcfc #000000 #000000 0 1;
#X obj 324 239 *~;
#X text 155 182 AUDIO ON/OFF;
#X connect 1 0 8 0;
#X connect 2 0 1 1;
#X connect 4 0 1 0;
#X connect 5 0 6 0;
#X connect 6 0 8 1;
#X connect 7 0 5 0;
#X connect 8 0 0 0;
#X connect 8 0 0 1;
#X coords 0 -1 1 1 200 120 2 100 100;
#X restore 926 503 pd audio_out;
#N canvas 107 50 1191 694 shapes 0;
#X obj 118 169 tgl 25 0 empty empty circle -8 -12 0 12 #fcfcfc #000000 #000000 0 1;
#X obj 121 216 hsl 162 19 0 0.5 0 0 empty empty speed -2 -10 0 12 #fcfcfc #000000 #000000 0 1;
#X obj 121 256 hsl 162 19 0 1 0 0 empty empty radius -2 -10 0 12 #fcfcfc #000000 #000000 0 1;
#X obj 84 29 loadbang;
#X msg 41 65 1;
#N canvas 654 119 634 504 circle 0;
#X obj 238 201 snapshot~;
#X obj 238 233 sin;
#X obj 238 170 *~ 6.28;
#X obj 298 234 cos;
#X obj 298 309 + 1;
#X obj 298 339 * 0.5;
#X obj 238 309 + 1;
#X obj 238 340 * 0.5;
#X obj 162 139 metro 50;
#X obj 238 378 s x_mod;
#X obj 306 379 s y_mod;
#X obj 238 139 phasor~;
#X obj 238 276 * 1;
#X obj 298 277 * 1;
#X obj 340 236 inlet;
#X obj 162 105 inlet;
#X obj 238 104 inlet;
#X connect 0 0 1 0;
#X connect 0 0 3 0;
#X connect 1 0 12 0;
#X connect 2 0 0 0;
#X connect 3 0 13 0;
#X connect 4 0 5 0;
#X connect 5 0 10 0;
#X connect 6 0 7 0;
#X connect 7 0 9 0;
#X connect 8 0 0 0;
#X connect 11 0 2 0;
#X connect 12 0 6 0;
#X connect 13 0 4 0;
#X connect 14 0 13 1;
#X connect 14 0 12 1;
#X connect 15 0 8 0;
#X connect 16 0 11 0;
#X restore 496 208 pd circle;
#N canvas 205 64 1072 652 square 0;
#N canvas 0 0 450 300 (subpatch) 0;
#X array square_x 44100 float 0;
#X coords 0 1 44099 0 200 140 1 0 0;
#X restore 774 128 graph;
#X obj 521 374 vline~;
#X obj 521 415 tabwrite~ square_x;
#X msg 521 343 0 \, 1 250 0 \, 0 250 500 \, 0 250 750;
#N canvas 0 0 450 300 (subpatch) 0;
#X array square_y 44100 float 0;
#X coords 0 1 44099 0 200 140 1 0 0;
#X restore 773 318 graph;
#X obj 540 221 vline~;
#X obj 540 262 tabwrite~ square_y;
#X msg 540 190 0 \, 1 250 250 \, 0 250 750;
#X obj 485 65 loadbang;
#X obj 186 148 phasor~;
#X obj 186 225 tabread~ square_x;
#X obj 186 184 *~ 44100;
#X obj 98 419 s x_mod;
#X obj 98 188 metro 50;
#X obj 98 285 snapshot~;
#X obj 255 284 snapshot~;
#X obj 255 418 s y_mod;
#X obj 333 225 tabread~ square_y;
#X msg 555 130 \; pd dsp 1;
#X obj 485 98 t b b b;
#X obj 343 346 expr (1 - $f1)/2;
#X obj 255 386 +;
#X obj 98 386 +;
#X obj 255 347 *;
#X obj 98 351 *;
#X obj 63 103 inlet;
#X obj 122 102 inlet;
#X obj 352 297 inlet;
#X connect 1 0 2 0;
#X connect 3 0 1 0;
#X connect 5 0 6 0;
#X connect 7 0 5 0;
#X connect 8 0 19 0;
#X connect 9 0 11 0;
#X connect 10 0 14 0;
#X connect 11 0 10 0;
#X connect 11 0 17 0;
#X connect 13 0 14 0;
#X connect 13 0 15 0;
#X connect 14 0 24 0;
#X connect 15 0 23 0;
#X connect 17 0 15 0;
#X connect 19 0 7 0;
#X connect 19 0 3 0;
#X connect 19 1 6 0;
#X connect 19 1 2 0;
#X connect 19 2 18 0;
#X connect 20 0 21 1;
#X connect 20 0 22 1;
#X connect 21 0 16 0;
#X connect 22 0 12 0;
#X connect 23 0 21 0;
#X connect 24 0 22 0;
#X connect 25 0 13 0;
#X connect 26 0 9 0;
#X connect 27 0 24 1;
#X connect 27 0 23 1;
#X connect 27 0 20 0;
#X restore 515 284 pd square;
#X obj 215 169 tgl 25 0 empty empty square -8 -12 0 12 #fcfcfc #000000 #000000 0 1;
#X obj 336 233 s speed;
#X obj 334 273 s radius;
#X obj 526 142 r speed;
#X obj 602 172 r radius;
#N canvas 135 54 1127 650 triangle 0;
#N canvas 0 25 450 300 (subpatch) 0;
#X array triangle_x 44100 float 0;
#X coords 0 1 44099 0 200 140 1 0 0;
#X restore 811 151 graph;
#X obj 591 405 vline~;
#N canvas 0 0 450 300 (subpatch) 0;
#X array triangle_y 44100 float 0;
#X coords 0 1 44099 0 200 140 1 0 0;
#X restore 810 341 graph;
#X obj 610 252 vline~;
#X obj 555 96 loadbang;
#X obj 218 141 phasor~;
#X obj 218 177 *~ 44100;
#X obj 130 383 s x_mod;
#X obj 130 181 metro 50;
#X obj 130 278 snapshot~;
#X obj 287 277 snapshot~;
#X obj 287 382 s y_mod;
#X msg 625 161 \; pd dsp 1;
#X obj 555 129 t b b b;
#X obj 375 310 expr (1 - $f1)/2;
#X obj 287 350 +;
#X obj 130 350 +;
#X obj 287 311 *;
#X obj 130 315 *;
#X obj 218 218 tabread~ triangle_x;
#X obj 367 218 tabread~ triangle_y;
#X obj 610 293 tabwrite~ triangle_x;
#X obj 591 446 tabwrite~ triangle_y;
#X msg 610 221 0 \, 1 333 0 \, 0 667 333;
#X msg 596 373 1 \, 0 333 333 \, 1 333 667;
#X obj 130 147 inlet;
#X obj 218 105 inlet;
#X obj 393 271 inlet;
#X connect 1 0 22 0;
#X connect 3 0 21 0;
#X connect 4 0 13 0;
#X connect 5 0 6 0;
#X connect 6 0 19 0;
#X connect 6 0 20 0;
#X connect 8 0 9 0;
#X connect 8 0 10 0;
#X connect 9 0 18 0;
#X connect 10 0 17 0;
#X connect 13 0 23 0;
#X connect 13 0 24 0;
#X connect 13 1 21 0;
#X connect 13 1 22 0;
#X connect 13 2 12 0;
#X connect 14 0 15 1;
#X connect 14 0 16 1;
#X connect 15 0 11 0;
#X connect 16 0 7 0;
#X connect 17 0 15 0;
#X connect 18 0 16 0;
#X connect 19 0 9 0;
#X connect 20 0 10 0;
#X connect 23 0 3 0;
#X connect 24 0 1 0;
#X connect 25 0 8 0;
#X connect 26 0 5 0;
#X connect 27 0 14 0;
#X connect 27 0 17 1;
#X connect 27 0 18 1;
#X restore 492 250 pd triangle;
#X obj 167 155 tgl 25 0 empty empty triangle -12 -12 0 12 #fcfcfc #000000 #000000 0 1;
#X text 116 111 MORPHING SHAPES;
#X msg 84 65 0.1;
#X obj 149 435 hradio 35 1 0 3 empty empty circle\ |\ triangle\ |\ square -38 -14 0 12 #fcfcfc #000000 #000000 0;
#X obj 149 482 sel 0 1 2;
#X obj 542 421 snapshot~;
#X obj 542 486 + 1;
#X obj 542 517 * 0.5;
#X obj 466 386 metro 50;
#X obj 542 549 s x_mod;
#X obj 542 453 * 1;
#X obj 542 386 osc~;
#X obj 636 421 snapshot~;
#X obj 636 486 + 1;
#X obj 636 517 * 0.5;
#X obj 636 453 * 1;
#X obj 635 380 metro 50;
#X obj 260 169 tgl 25 0 empty empty y 8 -10 0 12 #fcfcfc #000000 #000000 0 1;
#X obj 260 124 tgl 25 0 empty empty x 8 -10 0 12 #fcfcfc #000000 #000000 0 1;
#X obj 636 549 s y_mod;
#X connect 0 0 5 0;
#X connect 1 0 8 0;
#X connect 2 0 9 0;
#X connect 3 0 15 0;
#X connect 3 0 4 0;
#X connect 4 0 2 0;
#X connect 7 0 6 0;
#X connect 10 0 5 1;
#X connect 10 0 6 1;
#X connect 10 0 12 1;
#X connect 10 0 24 0;
#X connect 11 0 5 2;
#X connect 11 0 6 2;
#X connect 11 0 12 2;
#X connect 11 0 23 1;
#X connect 11 0 28 1;
#X connect 13 0 12 0;
#X connect 15 0 1 0;
#X connect 16 0 17 0;
#X connect 18 0 23 0;
#X connect 19 0 20 0;
#X connect 20 0 22 0;
#X connect 21 0 18 0;
#X connect 23 0 19 0;
#X connect 24 0 18 0;
#X connect 24 0 25 0;
#X connect 25 0 28 0;
#X connect 26 0 27 0;
#X connect 27 0 32 0;
#X connect 28 0 26 0;
#X connect 29 0 25 0;
#X connect 30 0 29 0;
#X connect 31 0 21 0;
#X coords 0 -1 1 1 200 190 2 100 100;
#X restore 506 433 pd shapes;
#N canvas 262 137 886 583 filter_lfo 0;
#X obj 392 388 s cutoff_mod;
#X obj 414 249 snapshot~;
#X obj 258 110 tgl 25 0 empty empty empty 0 -10 0 12 #fcfcfc #000000 #000000 0 1;
#X obj 119 193 hsl 162 19 0 60 0 0 empty empty modulation\ amount -2 -8 0 12 #fcfcfc #000000 #000000 0 1;
#X obj 120 238 hsl 162 19 0 127 0 0 empty empty center\ frequency -2 -8 0 12 #fcfcfc #000000 #000000 0 1;
#X obj 119 148 hsl 162 19 0.01 10 1 0 empty empty frequency -2 -8 0 12 #fcfcfc #000000 #000000 0 1;
#X text 113 111 FILTER LFO;
#X obj 64 0 loadbang;
#X msg 139 43 0.1;
#X obj 35 80 ftom;
#X obj 414 212 osc~;
#X obj 392 313 *;
#X obj 392 355 +;
#X msg 90 42 40;
#X msg 35 49 440;
#X obj 339 213 metro 10;
#X connect 1 0 11 0;
#X connect 2 0 15 0;
#X connect 3 0 11 1;
#X connect 4 0 12 1;
#X connect 5 0 10 0;
#X connect 7 0 8 0;
#X connect 7 0 13 0;
#X connect 7 0 14 0;
#X connect 8 0 5 0;
#X connect 9 0 4 0;
#X connect 10 0 1 0;
#X connect 11 0 12 0;
#X connect 12 0 0 0;
#X connect 13 0 3 0;
#X connect 14 0 9 0;
#X connect 15 0 1 0;
#X coords 0 -1 1 1 200 170 2 100 100;
#X restore 716 323 pd filter_lfo;
#N canvas 443 142 729 443 lfo 0;
#X text 115 107 LFO 2;
#X coords 0 -1 1 1 200 120 2 100 100;
#X restore 716 503 pd lfo;
#N canvas 410 26 943 736 settings 0;
#X obj 273 728 s osc_message;
#X obj 205 156 bng 30 250 50 0 empty empty RESET -40 15 0 12 #fcfcfc #000000 #000000;
#X obj 284 224 oscformat randomize;
#X obj 205 196 bng 30 250 50 0 empty empty RANDOMIZE\ ALL -95 15 0 12 #fcfcfc #000000 #000000;
#X obj 438 138 r frequency;
#X obj 438 172 v f0;
#X floatatom 492 172 5 0 0 0 - - - 0;
#X obj 205 440 tgl 30 0 empty empty LS\ On/Off -75 15 0 12 #fcfcfc #000000 #000000 0 1;
#X obj 303 473 oscformat latent;
#X obj 275 183 oscformat reset;
#X obj 296 289 oscformat waveform random;
#N canvas 0 25 1440 762 osc-server 0;
#X obj 63 38 inlet;
#X obj 183 506 array set A;
#X obj 216 471 array set B;
#X obj 249 435 array set C;
#X obj 284 396 array set D;
#X obj 64 104 netreceive -u -b;
#X obj 64 131 oscparse;
#X msg 64 75 listen 5005;
#X obj 64 159 list trim;
#X obj 64 245 list length;
#X obj 39 433 s samplesize;
#X obj 55 379 expr 44100 / $f1;
#X obj 57 404 s frequency;
#X obj 475 373 s osc_message;
#X obj 475 341 oscformat morphing;
#X obj 467 266 unpack s f f;
#X obj 514 299 pack;
#X msg 65 281 \; A resize \$1 \; B resize \$1 \; C resize \$1 \; D resize \$1 \; output resize \$1;
#X obj 215 263 route A B C D output;
#X obj 318 352 array set output;
#X obj 64 193 route reset waveform multixy;
#X connect 0 0 7 0;
#X connect 5 0 6 0;
#X connect 6 0 8 0;
#X connect 7 0 5 0;
#X connect 8 0 20 0;
#X connect 9 0 17 0;
#X connect 9 0 10 0;
#X connect 9 0 11 0;
#X connect 11 0 12 0;
#X connect 14 0 13 0;
#X connect 15 1 16 0;
#X connect 15 2 16 1;
#X connect 16 0 14 0;
#X connect 18 0 1 0;
#X connect 18 1 2 0;
#X connect 18 2 3 0;
#X connect 18 3 4 0;
#X connect 18 4 19 0;
#X connect 20 0 9 0;
#X connect 20 1 18 0;
#X connect 20 2 15 0;
#X restore 275 94 pd osc-server;
#X obj 289 21 loadbang;
#N canvas 0 28 1440 872 osc-client 0;
#X msg 46 151 connect localhost 5010;
#X msg 385 146 disconnect;
#X obj 210 251 netsend -u -b;
#X obj 242 123 list prepend send;
#X obj 242 154 list trim;
#X obj 46 110 inlet;
#X obj 242 83 inlet;
#X obj 385 105 inlet;
#X connect 0 0 2 0;
#X connect 1 0 2 0;
#X connect 3 0 4 0;
#X connect 4 0 2 0;
#X connect 5 0 0 0;
#X connect 6 0 3 0;
#X connect 7 0 1 0;
#X restore 390 94 pd osc-client;
#X obj 434 62 r osc_message;
#X obj 450 408 array get output;
#X obj 450 469 oscformat waveform output;
#X obj 450 439 list prepend;
#X obj 450 373 t b f;
#X obj 115 260 hradio 30 1 0 4 empty empty Random\ Waveform 0 -12 0 12 #fcfcfc #000000 #000000 0;
#X text 125 296 A;
#X text 153 296 B;
#X text 183 296 C;
#X text 213 296 D;
#X obj 115 343 hradio 30 1 0 4 empty empty Save\ Output 0 -12 0 12 #fcfcfc #000000 #000000 0;
#X text 125 379 A;
#X text 153 379 B;
#X text 183 379 C;
#X text 213 379 D;
#X obj 205 116 tgl 30 0 empty empty DSP\ ON/OFF -75 15 0 12 #ffffff #000000 #000000 0 1;
#X msg 276 141 \; pd dsp \$1;
#X obj 289 47 t b b b b;
#X obj 449 681 array get output;
#X obj 596 666 bng 30 250 50 0 empty empty OUTPUT\ FEEDBACK -70 -12 0 12 #fcfcfc #000000 #000000;
#X obj 115 637 hradio 30 1 0 4 empty empty LS\ Feedback 0 -12 0 12 #fcfcfc #000000 #000000 0;
#X text 125 673 A;
#X text 153 673 B;
#X text 183 673 C;
#X text 213 673 D;
#X obj 440 614 oscformat waveform feedback;
#X obj 448 708 oscformat output feedback;
#X obj 115 507 hradio 30 1 0 4 empty empty LS\ Explore 0 -12 0 12 #fcfcfc #000000 #000000 0;
#X text 125 543 A;
#X text 153 543 B;
#X text 183 543 C;
#X text 213 543 D;
#X obj 442 533 oscformat waveform perturb;
#X obj 118 587 hsl 115 12 0 1 0 0 empty empty Variability 0 -12 0 12 #fcfcfc #000000 #000000 0 1;
#X obj 452 574 oscformat waveform perturb gamma;
#X obj 215 617 tgl 20 0 empty empty empty 0 -10 0 12 #fcfcfc #000000 #000000 0 1;
#X obj 25 585 metro 100;
#X obj 215 487 tgl 20 0 empty empty empty 0 -10 0 12 #fcfcfc #000000 #000000 0 1;
#X obj 25 470 metro 100;
#X text 128 412 LATENT SPACE;
#X connect 1 0 9 0;
#X connect 2 0 0 0;
#X connect 3 0 2 0;
#X connect 4 0 5 0;
#X connect 4 0 6 0;
#X connect 7 0 8 0;
#X connect 8 0 0 0;
#X connect 9 0 0 0;
#X connect 10 0 0 0;
#X connect 12 0 31 0;
#X connect 14 0 13 1;
#X connect 15 0 17 0;
#X connect 16 0 0 0;
#X connect 17 0 16 0;
#X connect 18 0 15 0;
#X connect 18 1 17 1;
#X connect 19 0 10 0;
#X connect 24 0 18 0;
#X connect 29 0 30 0;
#X connect 31 0 1 0;
#X connect 31 1 11 0;
#X connect 31 2 13 0;
#X connect 31 3 29 0;
#X connect 32 0 40 0;
#X connect 33 0 32 0;
#X connect 34 0 39 0;
#X connect 39 0 0 0;
#X connect 40 0 0 0;
#X connect 41 0 46 0;
#X connect 46 0 0 0;
#X connect 47 0 48 0;
#X connect 48 0 0 0;
#X connect 49 0 50 0;
#X connect 50 0 34 0;
#X connect 51 0 52 0;
#X connect 52 0 41 0;
#X coords 0 -1 1 1 150 600 2 100 100;
#X restore 26 23 pd settings;
#N canvas 451 131 616 446 output 0;
#N canvas 121 146 450 278 (subpatch) 0;
#X array output 600 float 0;
#X coords 0 1 599 -1 290 150 1 0 0;
#X restore 110 120 graph;
#X coords 0 -1 1 1 310 190 2 100 100;
#X restore 186 433 pd output;
