#N canvas 30 25 1440 762 12;
#N canvas 0 22 450 278 (subpatch) 0;
#X array A 600 float 0;
#X coords 0 1 599 -1 200 140 1 0 0;
#X restore 604 30 graph;
#X obj 923 493 r samplesize;
#X obj 1032 790 dac~;
#X obj 851 518 phasor~;
#X floatatom 1101 625 5 0 0 0 - - -;
#X floatatom 1158 653 5 0 0 0 - - -;
#X obj 851 554 *~;
#X floatatom 1150 625 5 0 0 0 - - -;
#X floatatom 923 519 5 0 0 0 - - -;
#X floatatom 1002 625 5 0 0 0 - - -;
#X floatatom 1050 625 5 0 0 0 - - -;
#X obj 1000 691 rev2~ 100 90 3000 20;
#X obj 856 411 bng 15 250 50 0 empty empty empty 17 7 0 10 -262144
-1 -1;
#X obj 969 655 vcf~ 1000 1;
#X obj 1086 725 hsl 128 15 0 1 0 0 empty empty empty -2 -8 0 10 -262144
-1 -1 0 1;
#X obj 1041 757 *~;
#X obj 718 777 dac~;
#X obj 765 715 hsl 128 15 0 1 0 0 empty empty empty -2 -8 0 10 -262144
-1 -1 0 1;
#X obj 724 741 *~;
#N canvas 0 22 450 278 (subpatch) 0;
#X array B 600 float 0;
#X coords 0 1 599 -1 200 140 1 0 0;
#X restore 830 30 graph;
#N canvas 0 22 450 278 (subpatch) 0;
#X array C 600 float 0;
#X coords 0 1 599 -1 200 140 1 0 0;
#X restore 604 198 graph;
#N canvas 0 22 450 278 (subpatch) 0;
#X array D 600 float 0;
#X coords 0 1 599 -1 200 140 1 0 0;
#X restore 833 200 graph;
#X obj 1085 173 hsl 128 15 0 1 0 0 empty empty empty -2 -8 0 10 -262144
-1 -1 10300 1;
#X obj 1236 173 hsl 128 15 0 1 0 0 empty empty empty -2 -8 0 10 -262144
-1 -1 8100 1;
#X obj 1167 319 s osc_message;
#X obj 1167 240 pack f f;
#X obj 1167 283 oscformat morphing;
#N canvas 0 22 450 278 (subpatch) 0;
#X array output 600 float 0;
#X coords 0 1 599 -1 200 140 1 0 0;
#X restore 138 356 graph;
#X obj 1204 205 bng 15 250 50 0 empty empty empty 17 7 0 10 -262144
-1 -1;
#X obj 402 181 hradio 15 1 0 4 empty empty empty 0 -8 0 10 -262144
-1 -1 0;
#X obj 230 284 s osc_message;
#X obj 225 208 oscformat initialize;
#X obj 225 178 bng 15 250 50 0 empty empty empty 17 7 0 10 -262144
-1 -1;
#X obj 402 205 oscformat waveform;
#X obj 1141 82 tgl 15 0 empty empty empty 17 7 0 10 -262144 -1 -1 0
1;
#X obj 62 208 oscformat randomize;
#X obj 62 178 bng 15 250 50 0 empty empty empty 17 7 0 10 -262144 -1
-1;
#N canvas 0 25 1440 734 osc-server 0;
#X obj 63 38 inlet;
#X obj 183 506 array set A;
#X obj 216 471 array set B;
#X obj 249 435 array set C;
#X obj 284 396 array set D;
#X obj 64 104 netreceive -u -b;
#X obj 64 131 oscparse;
#X msg 64 75 listen 5005;
#X obj 64 159 list trim;
#X obj 64 245 list length;
#X obj 39 433 s samplesize;
#X obj 55 379 expr 44100 / $f1;
#X obj 57 404 s frequency;
#X obj 499 374 s osc_message;
#X obj 499 342 oscformat morphing;
#X obj 491 267 unpack s f f;
#X obj 538 300 pack;
#X msg 65 281 \; A resize \$1 \; B resize \$1 \; C resize \$1 \; D
resize \$1 \; output resize \$1;
#X obj 64 193 route init waveform multixy;
#X obj 215 263 route A B C D output;
#X obj 318 352 array set output;
#X connect 0 0 7 0;
#X connect 5 0 6 0;
#X connect 6 0 8 0;
#X connect 7 0 5 0;
#X connect 8 0 18 0;
#X connect 9 0 17 0;
#X connect 9 0 10 0;
#X connect 9 0 11 0;
#X connect 11 0 12 0;
#X connect 14 0 13 0;
#X connect 15 1 16 0;
#X connect 15 2 16 1;
#X connect 16 0 14 0;
#X connect 18 0 9 0;
#X connect 18 1 19 0;
#X connect 18 2 15 0;
#X connect 19 0 1 0;
#X connect 19 1 2 0;
#X connect 19 2 3 0;
#X connect 19 3 4 0;
#X connect 19 4 20 0;
#X restore 61 117 pd osc-server;
#X obj 61 79 loadbang;
#X obj 851 588 tabread~ output;
#N canvas 0 28 1440 872 osc-client 0;
#X msg 46 151 connect localhost 5010;
#X msg 385 146 disconnect;
#X obj 210 251 netsend -u -b;
#X obj 242 123 list prepend send;
#X obj 242 154 list trim;
#X obj 46 110 inlet;
#X obj 242 83 inlet;
#X obj 385 105 inlet;
#X connect 0 0 2 0;
#X connect 1 0 2 0;
#X connect 3 0 4 0;
#X connect 4 0 2 0;
#X connect 5 0 0 0;
#X connect 6 0 3 0;
#X connect 7 0 1 0;
#X restore 176 118 pd osc-client;
#X obj 220 79 r osc_message;
#N canvas 0 25 1440 762 circle 0;
#X obj 226 194 snapshot~;
#X obj 226 227 sin;
#X obj 227 163 *~ 6.28;
#X obj 270 228 cos;
#X obj 286 258 + 1;
#X obj 286 288 * 0.5;
#X obj 226 256 + 1;
#X obj 226 286 * 0.5;
#X obj 151 101 inlet;
#X obj 224 87 inlet;
#X obj 224 333 outlet;
#X obj 287 334 outlet;
#X obj 227 132 phasor~ 0.1;
#X obj 151 132 metro 50;
#X connect 0 0 1 0;
#X connect 0 0 3 0;
#X connect 1 0 6 0;
#X connect 2 0 0 0;
#X connect 3 0 4 0;
#X connect 4 0 5 0;
#X connect 5 0 11 0;
#X connect 6 0 7 0;
#X connect 7 0 10 0;
#X connect 8 0 13 0;
#X connect 9 0 12 0;
#X connect 12 0 2 0;
#X connect 13 0 0 0;
#X restore 1141 110 pd circle;
#X obj 1204 75 hsl 128 15 0 1 0 0 empty empty empty -2 -8 0 10 -262144
-1 -1 900 1;
#X obj 634 407 bng 15 250 50 0 empty empty empty 17 7 0 10 -262144
-1 -1;
#X obj 412 263 r frequency;
#X obj 412 297 v f0;
#X obj 1052 410 bng 15 250 50 0 empty empty empty 17 7 0 10 -262144
-1 -1;
#X obj 1052 443 expr f0*2;
#X obj 634 440 expr f0*0.5;
#X floatatom 475 298 5 0 0 0 - - -;
#X obj 857 446 expr f0;
#X obj 737 410 bng 15 250 50 0 empty empty empty 17 7 0 10 -262144
-1 -1;
#X obj 737 443 expr f0*0.75;
#X obj 945 415 bng 15 250 50 0 empty empty empty 17 7 0 10 -262144
-1 -1;
#X obj 945 448 expr f0*1.5;
#X floatatom 1253 111 5 0 0 0 - - -;
#X obj 530 409 bng 15 250 50 0 empty empty empty 17 7 0 10 -262144
-1 -1;
#X obj 530 442 expr f0*0.25;
#X connect 1 0 8 0;
#X connect 3 0 6 0;
#X connect 4 0 11 2;
#X connect 5 0 11 4;
#X connect 6 0 39 0;
#X connect 7 0 11 3;
#X connect 8 0 6 1;
#X connect 9 0 13 1;
#X connect 10 0 13 2;
#X connect 11 0 15 0;
#X connect 12 0 51 0;
#X connect 13 0 11 0;
#X connect 13 1 11 0;
#X connect 14 0 15 1;
#X connect 15 0 2 0;
#X connect 15 0 2 1;
#X connect 17 0 18 1;
#X connect 18 0 16 0;
#X connect 18 0 16 1;
#X connect 22 0 25 0;
#X connect 23 0 25 1;
#X connect 23 0 28 0;
#X connect 25 0 26 0;
#X connect 26 0 24 0;
#X connect 28 0 25 0;
#X connect 29 0 33 0;
#X connect 31 0 30 0;
#X connect 32 0 31 0;
#X connect 33 0 30 0;
#X connect 34 0 42 0;
#X connect 35 0 30 0;
#X connect 36 0 35 0;
#X connect 38 0 37 0;
#X connect 38 0 40 0;
#X connect 39 0 18 0;
#X connect 41 0 40 1;
#X connect 42 0 22 0;
#X connect 42 1 23 0;
#X connect 43 0 42 1;
#X connect 43 0 56 0;
#X connect 44 0 49 0;
#X connect 45 0 46 0;
#X connect 45 0 50 0;
#X connect 47 0 48 0;
#X connect 48 0 3 0;
#X connect 49 0 3 0;
#X connect 51 0 3 0;
#X connect 52 0 53 0;
#X connect 53 0 3 0;
#X connect 54 0 55 0;
#X connect 55 0 3 0;
#X connect 57 0 58 0;
#X connect 58 0 3 0;
